<?xml version="1.0"?>
<svg xmlns="http://www.w3.org/2000/svg" id="outline" viewBox="0 0 512 512" width="512" height="512"><path d="M485.32812,238.57422,354.53125,192.41016l-70.76172-23.58594A15.91541,15.91541,0,0,0,278.70312,168H241.53906a16.005,16.005,0,0,0-5.9414,1.14453L198.46094,184H128.72266a15.96341,15.96341,0,0,0-2.86328.25781L42.50391,199.41406A16.06677,16.06677,0,0,0,31.05469,208L16.84375,236.42188A8.00528,8.00528,0,0,0,16,240v38.11328a16.07132,16.07132,0,0,0,1.68748,7.15234l12.94533,25.89063A15.91514,15.91514,0,0,0,44.94531,320h9.54883a47.89034,47.89034,0,0,0,83.01172,0H350.49414a47.89034,47.89034,0,0,0,83.01172,0h36.60742a16.07108,16.07108,0,0,0,7.15234-1.6875l9.89063-4.94531A15.91514,15.91514,0,0,0,496,299.05469V253.66016A16.02411,16.02411,0,0,0,485.32812,238.57422ZM241.53906,184h37.16016l55.25488,18.416-8.376,5.584H234.668l-18.481-13.85986ZM96,328a32,32,0,1,1,32-32A32.03667,32.03667,0,0,1,96,328Zm0-80a47.72262,47.72262,0,0,0-47.27734,56H44.94531L32,278.11328V248H48V232H36.94287l8.42041-16.84375,79.123-14.38623,59.90039,82.36279a16.01907,16.01907,0,0,0,5.78125,4.89453L222.11133,304h-78.834A47.72262,47.72262,0,0,0,96,248Zm296,80a32,32,0,1,1,32-32A32.03667,32.03667,0,0,1,392,328Zm78.11328-24H439.27734a48.001,48.001,0,1,0-94.55468,0h-86.832l-60.57031-30.28516L143.71,200h53.625l27.72751,20.793A16.06168,16.06168,0,0,0,234.668,224h90.91015a15.953,15.953,0,0,0,8.875-2.6875l18.65626-12.4375L480,253.66016V256H456v16h24v27.05469Z"/><circle cx="96" cy="296" r="8"/><circle cx="392" cy="296" r="8"/></svg>
