<?xml version="1.0"?>
<svg xmlns="http://www.w3.org/2000/svg" id="outline" viewBox="0 0 512 512" width="512" height="512"><path d="M493,353.75l-37.8125-30.24219A15.99937,15.99937,0,0,0,445.19531,320H429.76318l-3.84765-11.543A15.913,15.913,0,0,0,432,296V266.74219a16.02335,16.02335,0,0,0-3.375-9.82031L376,189.25586V168a40.026,40.026,0,0,0-24-36.60938V109.77344A15.95015,15.95015,0,0,0,360,96V88a24.02624,24.02624,0,0,0-24-24h-8a16.02085,16.02085,0,0,0-16,16V96a16.02085,16.02085,0,0,0,16,16h8v16H324.28125a15.97485,15.97485,0,0,0-13.3125,7.125L298.6875,153.54688A15.83618,15.83618,0,0,0,296.35742,160H272v16h24v4.6875A16.11511,16.11511,0,0,0,300.6875,192L314.959,206.27148a15.88412,15.88412,0,0,0-1.41992,10.22071L328,288.78906v55.66016L323.46875,352H264V323.77344A39.78817,39.78817,0,0,0,241.89062,288l-5.22314-2.61182,7.771-6.66259,10.71-5.3584A15.89107,15.89107,0,0,0,264,259.05469v-6.10938a15.89785,15.89785,0,0,0-8.84375-14.3125L213.26562,217.6875A16.14018,16.14018,0,0,0,206.10938,216H128V184a16.02085,16.02085,0,0,0-16-16H43.3125A16.11511,16.11511,0,0,0,32,172.6875L20.6875,184A16.11511,16.11511,0,0,0,16,195.3125v23.74219a15.89785,15.89785,0,0,0,8.84375,14.3125L64,252.94531v21.28125A15.95015,15.95015,0,0,0,56,288v19.27344a15.98252,15.98252,0,0,0,8.29688,14.01562l3.61523,1.98828A63.97645,63.97645,0,1,0,149.93359,400h57.48l10.938,6.01562A16.04041,16.04041,0,0,0,226.05469,408H339.71875a15.97485,15.97485,0,0,0,13.3125-7.125l7.27979-10.91992A63.96576,63.96576,0,1,0,487.4458,376H488a7.99539,7.99539,0,0,0,8-8v-8A8.01016,8.01016,0,0,0,493,353.75ZM327.98438,80H336a8.00541,8.00541,0,0,1,8,8v8H328ZM475.19531,360H409.89062l-22.207-11.10352L390.94775,344H416a7.9942,7.9942,0,0,0,5.65625-2.34375L427.3125,336h17.875ZM436.125,381.67188a5.55863,5.55863,0,0,1-3.50781,7.02343,5.61474,5.61474,0,0,1-6.71875-2.78125L420.94336,376h13.29248Zm-25.20654-67.62745,3.93115,11.79346L412.6875,328H401.61475ZM312,176h24V160H313.61475l10.6665-16H336a24.02624,24.02624,0,0,1,24,24v18.23682l-18.53125,6.17724-13.30957,4.43262L312,180.6875Zm31.6875,109.65625-14.45312-72.30469,10.13769-3.37939,27.72949,69.31689L344,317.78613V288.78906A15.838,15.838,0,0,0,343.6875,285.65625ZM234.73438,302.3125A23.8784,23.8784,0,0,1,248,323.77344V352h-5.4375l-45.60156-32.57031,26.52539-22.74121ZM206.10938,232,248,252.94531v6.10938l-9.125,4.5625L128,241.44238V232ZM80,256h24.00195L92,272H80ZM32,195.3125,43.3125,184H112v56H73.89062L32,219.05469ZM88,432a48,48,0,0,1,0-96c1.09473,0,2.18213.03906,3.25391.11475l26.937,14.81494L82.6875,366.14062A17.64438,17.64438,0,0,0,89.64062,400h43.55665A48.22718,48.22718,0,0,1,88,432Zm1.64062-48a1.6458,1.6458,0,0,1-.64843-3.15625l46.98388-20.13281L178.32129,384Zm250.07813,8H226.05469L72,307.27344V288H92a16.04729,16.04729,0,0,0,12.79688-6.40625L123.375,256.83594,222.3125,276.625l-43.51562,37.30469a7.99041,7.99041,0,0,0,.55468,12.57812l53.92188,38.51563A15.94062,15.94062,0,0,0,242.5625,368h80.90625a16.08445,16.08445,0,0,0,13.71875-7.76562L380.82812,287.5a16.11286,16.11286,0,0,0,1.125-14.15625l-27.375-68.4375,10.58594-3.52344L416,266.74219,416.01562,296H408a8.00217,8.00217,0,0,0-6.65625,3.5625ZM472,383.79688a48,48,0,1,1-91.40088-20.55225l21.43652,10.71875,9.5503,19.10693a21.678,21.678,0,0,0,19.35156,11.89844,21.5387,21.5387,0,0,0,20.36719-28.35156L451.09863,376h20.21826A48.68,48.68,0,0,1,472,383.79688Z"/></svg>
